<?xml version="1.0" encoding="utf-8"?>
<!-- Generator: Adobe Illustrator 17.0.0, SVG Export Plug-In . SVG Version: 6.00 Build 0)  -->
<!DOCTYPE svg PUBLIC "-//W3C//DTD SVG 1.1//EN" "http://www.w3.org/Graphics/SVG/1.1/DTD/svg11.dtd">
<svg version="1.1" id="Layer_1" xmlns="http://www.w3.org/2000/svg" xmlns:xlink="http://www.w3.org/1999/xlink" x="0px" y="0px"
	 width="240.54px" height="277.233px" viewBox="11 32.059 240.54 277.233" enable-background="new 11 32.059 240.54 277.233"
	 xml:space="preserve">
<polygon fill="#E8222B" stroke="#000000" stroke-miterlimit="10" points="251.54,239.595 131.719,309.292 11.449,240.373 
	11,101.757 130.82,32.059 251.091,100.978 "/>
<line fill="none" stroke="#FFFFFF" stroke-width="0.25" stroke-miterlimit="10" x1="11.449" y1="240.373" x2="251.091" y2="100.978"/>
<line fill="none" stroke="#FFFFFF" stroke-width="0.25" stroke-miterlimit="10" x1="130.82" y1="32.059" x2="131.719" y2="309.292"/>
<line fill="none" x1="251.54" y1="239.595" x2="11" y2="101.757"/>
<path display="none" d="M-102.333,200.667c-6.449,0-6.449,10,0,10S-95.885,200.667-102.333,200.667z"/>
<g display="none">
	<path display="inline" fill="#FFFFFF" d="M177.667,218.333"/>
	<g display="inline">
		<path fill="none" stroke="#000000" stroke-miterlimit="10" d="M177.667,218.333"/>
	</g>
</g>
<g display="none">
	<path display="inline" fill="#FFFFFF" d="M177.667,218.333"/>
	<g display="inline">
		<path fill="none" stroke="#000000" stroke-miterlimit="10" d="M177.667,218.333"/>
	</g>
</g>
<g display="none">
	<path display="inline" fill="#FFFFFF" d="M209.667,225.667"/>
	<g display="inline">
		<path fill="none" stroke="#000000" stroke-miterlimit="10" d="M209.667,225.667"/>
	</g>
</g>
<text transform="matrix(1.0925 0 0 1 29.7655 237.4697)" fill="#F9F9FA" font-family="'Perpetua'" font-size="237.0655">S</text>
<text transform="matrix(0.8339 0 0 1 127.766 222.5454)" fill="#FFFFFF" font-family="'Perpetua'" font-size="183.4291">D</text>
<line fill="none" stroke="#FFFFFF" stroke-width="0.5" stroke-miterlimit="10" x1="11" y1="101.757" x2="251.091" y2="237.47"/>
</svg>
